<svg width="500" height="500" viewBox="0 0 500 500" fill="none" xmlns="http://www.w3.org/2000/svg">
<rect width="500" height="500" fill="black"/>
<path d="M124.765 168V111.36H102.493V100.8H159.517V111.36H137.245V168H124.765ZM264.115 100.8H276.595V168H264.115V100.8ZM229.363 168H216.883V100.8H229.363V168ZM265.075 139.2H228.307V128.544H265.075V139.2ZM354.122 128.736H387.53V139.008H354.122V128.736ZM355.082 157.536H393.002V168H342.602V100.8H391.658V111.264H355.082V157.536Z" fill="white"/>
<path d="M110.493 284V216.8H120.765L150.141 265.856H144.765L173.661 216.8H183.933L184.029 284H172.221L172.125 235.328H174.621L150.045 276.32H144.477L119.517 235.328H122.397V284H110.493ZM250.18 284V216.8H262.66V284H250.18ZM328.837 284V216.8H339.109L381.253 268.544H376.165V216.8H388.549V284H378.277L336.133 232.256H341.221V284H328.837Z" fill="white"/>
<path d="M106.212 400V332.8H135.588C142.884 332.8 149.284 334.208 154.788 337.024C160.292 339.84 164.58 343.744 167.652 348.736C170.724 353.728 172.26 359.616 172.26 366.4C172.26 373.12 170.724 379.008 167.652 384.064C164.58 389.056 160.292 392.96 154.788 395.776C149.284 398.592 142.884 400 135.588 400H106.212ZM118.692 389.44H135.012C140.068 389.44 144.42 388.48 148.068 386.56C151.78 384.64 154.628 381.952 156.612 378.496C158.66 375.04 159.684 371.008 159.684 366.4C159.684 361.728 158.66 357.696 156.612 354.304C154.628 350.848 151.78 348.16 148.068 346.24C144.42 344.32 140.068 343.36 135.012 343.36H118.692V389.44ZM254.356 400.96C249.108 400.96 244.084 400.224 239.284 398.752C234.484 397.216 230.676 395.264 227.86 392.896L232.18 383.2C234.868 385.312 238.196 387.072 242.164 388.48C246.132 389.888 250.196 390.592 254.356 390.592C257.876 390.592 260.724 390.208 262.9 389.44C265.076 388.672 266.676 387.648 267.7 386.368C268.724 385.024 269.236 383.52 269.236 381.856C269.236 379.808 268.5 378.176 267.028 376.96C265.556 375.68 263.636 374.688 261.268 373.984C258.964 373.216 256.372 372.512 253.492 371.872C250.676 371.232 247.828 370.496 244.948 369.664C242.132 368.768 239.54 367.648 237.172 366.304C234.868 364.896 232.98 363.04 231.508 360.736C230.036 358.432 229.3 355.488 229.3 351.904C229.3 348.256 230.26 344.928 232.18 341.92C234.164 338.848 237.14 336.416 241.108 334.624C245.14 332.768 250.228 331.84 256.372 331.84C260.404 331.84 264.404 332.352 268.372 333.376C272.34 334.4 275.796 335.872 278.74 337.792L274.804 347.488C271.796 345.696 268.692 344.384 265.492 343.552C262.292 342.656 259.22 342.208 256.276 342.208C252.82 342.208 250.004 342.624 247.828 343.456C245.716 344.288 244.148 345.376 243.124 346.72C242.164 348.064 241.684 349.6 241.684 351.328C241.684 353.376 242.388 355.04 243.796 356.32C245.268 357.536 247.156 358.496 249.46 359.2C251.828 359.904 254.452 360.608 257.332 361.312C260.212 361.952 263.06 362.688 265.876 363.52C268.756 364.352 271.348 365.44 273.652 366.784C276.02 368.128 277.908 369.952 279.316 372.256C280.788 374.56 281.524 377.472 281.524 380.992C281.524 384.576 280.532 387.904 278.548 390.976C276.628 393.984 273.652 396.416 269.62 398.272C265.588 400.064 260.5 400.96 254.356 400.96ZM353.035 384.16L352.363 369.376L387.595 332.8H401.611L372.331 363.904L365.419 371.488L353.035 384.16ZM341.899 400V332.8H354.379V400H341.899ZM388.747 400L363.019 369.376L371.275 360.256L403.339 400H388.747Z" fill="white"/>
</svg>
